<svg width="388" height="62" viewBox="0 0 388 62" fill="none" xmlns="http://www.w3.org/2000/svg">
<path d="M1.75914 51.469L2.84446 50.9145L6.8658 55.3214L7.53047 56.1202L7.29888 55.1002L6.1526 49.2245L7.15443 48.7127L11.2279 53.0929L11.9426 53.9121L11.6871 52.8583L10.4834 47.0119L11.527 46.4788L13.0357 54.867L12.0339 55.3788L7.89267 51.0464L7.38726 50.4821L7.55351 51.2196L8.65272 57.1062L7.65089 57.618L1.75914 51.469Z" fill="#6D6D6D"/>
<path d="M24.0326 49.6551C22.0288 50.5895 20.5704 50.0779 19.6575 48.1201C19.2645 47.2776 19.2279 46.4735 19.5476 45.7081C19.8322 45.0151 20.2949 44.5192 20.9356 44.2203C21.6331 43.8951 22.2872 43.8745 22.8981 44.1585C23.4658 44.4239 23.9197 44.9213 24.2598 45.6506L24.453 46.0648L20.8313 47.7537C21.2986 48.7556 21.9931 49.1774 22.9149 49.019C23.1344 48.9813 23.4459 48.8684 23.8495 48.6802C24.2566 48.4903 24.6293 48.2497 24.9675 47.9583L25.386 48.8558C25.0395 49.1294 24.5884 49.3959 24.0326 49.6551ZM23.0269 45.7794C22.8684 45.4396 22.6408 45.1966 22.3442 45.0504C21.9993 44.8837 21.6339 44.8904 21.248 45.0703C20.8408 45.2602 20.5701 45.5438 20.4357 45.9211C20.3143 46.2708 20.3337 46.6173 20.4939 46.9607L23.0269 45.7794Z" fill="#6D6D6D"/>
<path d="M29.079 37.7062L30.1542 37.2401L32.711 43.1374C33.0187 43.847 33.361 44.1946 33.7379 44.1802C33.8641 44.1766 33.9881 44.1484 34.1099 44.0955C34.2318 44.0427 34.3349 43.981 34.4192 43.9104L34.7781 44.7383L34.5885 44.846C34.5271 44.8811 34.466 44.9119 34.405 44.9383C33.7169 45.2367 33.1227 45.2261 32.6223 44.9066C32.2319 44.6543 31.9039 44.2218 31.6382 43.6089L29.079 37.7062Z" fill="#6D6D6D"/>
<path d="M45.5076 40.2796C45.3179 40.436 44.955 40.6223 44.4188 40.8384C43.8826 41.0545 43.3998 41.1732 42.9704 41.1946C42.5446 41.2146 42.1484 41.151 41.7817 41.004C41.0229 40.6991 40.4559 40.0811 40.0807 39.1499C39.7172 38.2477 39.7589 37.4055 40.2059 36.6231C40.606 35.9228 41.2336 35.4004 42.0886 35.0558C42.6176 34.8427 42.9872 34.7148 43.1975 34.6722L43.5873 35.6396C43.2435 35.6644 42.876 35.7556 42.4847 35.9133C42.097 36.0695 41.7965 36.2538 41.583 36.4662C41.3681 36.6749 41.2156 36.9027 41.1256 37.1496C40.9563 37.6179 40.9848 38.1328 41.2111 38.6944C41.5937 39.6436 42.1908 40.1379 43.0026 40.1772C43.2906 40.1917 43.5506 40.1522 43.7824 40.0588C44.0143 39.9653 44.1897 39.8884 44.3085 39.8279C44.4309 39.7659 44.5446 39.7032 44.6497 39.6398C44.8727 39.5036 45.028 39.3926 45.1156 39.3068L45.5076 40.2796Z" fill="#6D6D6D"/>
<path d="M50.2613 35.1964C49.9318 34.3062 49.9485 33.4794 50.3115 32.7161C50.6515 32.0029 51.2135 31.5012 51.9974 31.211C52.7667 30.9262 53.5052 30.9465 54.213 31.2718C54.9659 31.6179 55.5078 32.2378 55.8387 33.1317C56.1682 34.0219 56.1574 34.8423 55.8063 35.5929C55.475 36.307 54.9284 36.8051 54.1664 37.0871C53.3935 37.3733 52.6415 37.3559 51.9104 37.0351C51.1405 36.6995 50.5908 36.0865 50.2613 35.1964ZM51.4042 34.7733C51.7514 35.7111 52.2878 36.2373 53.0133 36.3519C53.2692 36.3905 53.5455 36.3548 53.8422 36.245C54.1389 36.1351 54.3682 35.9836 54.5299 35.7905C54.6903 35.5936 54.8005 35.3737 54.8605 35.1308C54.9676 34.6662 54.9127 34.1409 54.6957 33.5548C54.3513 32.6243 53.8204 32.0961 53.1031 31.9701C52.8532 31.9251 52.5854 31.9555 52.2997 32.0613C52.014 32.1671 51.7872 32.3197 51.6195 32.5193C51.4541 32.7138 51.3396 32.9332 51.2759 33.1776C51.1458 33.6589 51.1886 34.1908 51.4042 34.7733Z" fill="#6D6D6D"/>
<path d="M62.6257 29.1441L64.0537 33.4548L62.9408 33.8218L61.0467 28.0793L62.0706 27.7416L62.3559 28.3447C62.6514 27.8688 63.0528 27.4896 63.5602 27.2071C63.7235 27.1162 63.8886 27.0432 64.0556 26.9881C64.7493 26.7593 65.369 26.8799 65.9148 27.3498C66.3669 26.5507 66.9454 26.035 67.6503 25.8025C68.3477 25.5725 68.925 25.6144 69.3823 25.9284C69.8421 26.2498 70.2341 26.902 70.5583 27.8851L71.5769 30.9734L70.464 31.3405L69.4582 28.2911C69.1401 27.3266 68.718 26.8262 68.1919 26.79C68.0153 26.7783 67.8231 26.8067 67.6154 26.8752C67.1183 27.0392 66.7207 27.3677 66.4227 27.8609L67.8543 32.2012L66.7414 32.5683L65.7209 29.4744C65.5031 28.8141 65.2519 28.3828 64.9672 28.1806C64.6923 27.9833 64.31 27.9654 63.8204 28.1269C63.3344 28.2872 62.9362 28.6263 62.6257 29.1441Z" fill="#6D6D6D"/>
<path d="M81.7954 27.9838C79.6722 28.6005 78.3093 27.8715 77.7069 25.7971C77.4476 24.9043 77.5345 24.1042 77.9677 23.3967C78.355 22.7554 78.8881 22.3362 79.5671 22.139C80.3061 21.9244 80.9557 22.0042 81.5159 22.3784C82.0362 22.7276 82.4086 23.2886 82.6331 24.0614L82.7605 24.5003L78.923 25.6148C79.2313 26.6764 79.8531 27.1995 80.7882 27.1842C81.0109 27.1805 81.336 27.1166 81.7637 26.9924C82.1951 26.8671 82.6002 26.6864 82.9791 26.4503L83.2553 27.4012C82.8709 27.6186 82.3843 27.8128 81.7954 27.9838ZM81.3949 23.9999C81.2904 23.6398 81.1027 23.3648 80.832 23.175C80.5166 22.9574 80.1545 22.908 79.7456 23.0268C79.3142 23.1521 79.0032 23.3909 78.8127 23.7431C78.6392 24.0701 78.6052 24.4156 78.7109 24.7794L81.3949 23.9999Z" fill="#6D6D6D"/>
<path d="M101.163 21.8435C101.299 21.8595 101.495 21.8374 101.749 21.7773C102.004 21.7172 102.21 21.6365 102.366 21.5353L102.582 22.4477C102.506 22.4856 102.393 22.5243 102.242 22.564L101.885 22.6602C101.806 22.6791 101.745 22.6935 101.703 22.7033C100.969 22.8765 100.371 22.7649 99.9081 22.3685C99.5352 22.0471 99.2734 21.5671 99.1226 20.9284L98.4643 18.1398L97.6203 18.339L97.4938 17.803L98.2584 17.2673L98.1875 15.7428L99.0543 15.5382L99.3989 16.998L101.224 16.5673L101.43 17.4398L99.6049 17.8705L100.262 20.6534C100.438 21.3986 100.738 21.7953 101.163 21.8435Z" fill="#6D6D6D"/>
<path d="M108.947 17.9203C108.755 16.9907 108.896 16.1758 109.37 15.4759C109.814 14.8221 110.445 14.4108 111.263 14.242C112.067 14.0764 112.794 14.2077 113.445 14.6359C114.137 15.0915 114.579 15.786 114.771 16.7195C114.963 17.6492 114.829 18.4586 114.369 19.1477C113.934 19.8038 113.318 20.2138 112.522 20.3779C111.715 20.5443 110.974 20.4138 110.3 19.9865C109.589 19.5387 109.138 18.85 108.947 17.9203ZM110.14 17.6742C110.342 18.6537 110.793 19.2547 111.493 19.4773C111.74 19.554 112.019 19.5604 112.329 19.4965C112.639 19.4326 112.888 19.3174 113.077 19.1508C113.265 18.9804 113.407 18.7796 113.503 18.5484C113.679 18.1053 113.704 17.5777 113.578 16.9656C113.378 15.9938 112.932 15.3916 112.242 15.159C112.002 15.0769 111.733 15.0666 111.434 15.1282C111.136 15.1897 110.889 15.3064 110.693 15.4784C110.5 15.6458 110.354 15.8455 110.254 16.0774C110.053 16.5337 110.015 17.0659 110.14 17.6742Z" fill="#6D6D6D"/>
<path d="M132.522 15.7491C132.657 15.7759 132.853 15.7694 133.112 15.7296C133.371 15.6899 133.582 15.6257 133.746 15.5373L133.889 16.4639C133.811 16.4957 133.695 16.5253 133.541 16.5529L133.178 16.6206C133.097 16.633 133.035 16.6425 132.992 16.6491C132.247 16.7636 131.66 16.6049 131.23 16.173C130.884 15.8231 130.661 15.3238 130.561 14.6752L130.126 11.8432L129.269 11.9749L129.185 11.4305L129.99 10.9571L130.04 9.43178L130.92 9.29651L131.148 10.7791L133.001 10.4943L133.137 11.3804L131.284 11.6652L131.718 14.4914C131.835 15.2481 132.103 15.6674 132.522 15.7491Z" fill="#6D6D6D"/>
<path d="M143.421 9.98896C142.847 10.0604 142.36 10.32 141.959 10.7675L142.52 15.2737L141.357 15.4186L140.279 6.76672L141.442 6.62182L141.853 9.91859C142.42 9.34805 143.038 9.02101 143.709 8.93745C144.426 8.84809 144.978 8.99584 145.364 9.38069C145.769 9.78687 146.034 10.49 146.158 11.4901L146.567 14.7694L145.404 14.9143L144.996 11.635C144.876 10.6737 144.543 10.1326 143.996 10.0117C143.822 9.97047 143.63 9.96288 143.421 9.98896Z" fill="#6D6D6D"/>
<path d="M156.053 13.868C153.852 14.076 152.65 13.1047 152.447 10.9541C152.359 10.0285 152.595 9.25884 153.153 8.64503C153.653 8.08765 154.255 7.77571 154.959 7.70919C155.725 7.6368 156.349 7.83688 156.829 8.30942C157.275 8.74991 157.535 9.37071 157.611 10.1718L157.654 10.6268L153.676 11.0028C153.78 12.1033 154.292 12.7337 155.214 12.8938C155.433 12.9319 155.765 12.93 156.208 12.8881C156.655 12.8459 157.087 12.7443 157.503 12.5833L157.597 13.5691C157.178 13.7107 156.664 13.8103 156.053 13.868ZM156.406 9.87957C156.371 9.50624 156.238 9.20097 156.008 8.96378C155.739 8.69101 155.392 8.57465 154.968 8.6147C154.521 8.65696 154.171 8.83327 153.918 9.14362C153.686 9.43232 153.588 9.76528 153.624 10.1425L156.406 9.87957Z" fill="#6D6D6D"/>
<path d="M179.623 12.2037C179.24 12.2898 178.72 12.3462 178.064 12.3731C177.413 12.3998 176.819 12.3341 176.285 12.1761C175.755 12.018 175.293 11.7711 174.9 11.4353C174.058 10.7152 173.609 9.68196 173.554 8.33543C173.518 7.45726 173.695 6.68763 174.087 6.02655C174.617 5.13302 175.463 4.54325 176.624 4.25724C176.98 4.17229 177.406 4.11967 177.902 4.09938C178.401 4.07893 178.802 4.08987 179.105 4.13221L179.151 5.25042C178.874 5.17574 178.449 5.15014 177.875 5.17362C177.305 5.19695 176.824 5.28701 176.432 5.44381C176.04 5.60061 175.718 5.81512 175.467 6.08732C174.965 6.62002 174.733 7.35277 174.771 8.28559C174.81 9.22621 175.098 9.96113 175.636 10.4904C176.218 11.0608 177.032 11.3246 178.078 11.2818C178.691 11.2567 179.191 11.1893 179.577 11.0797L179.623 12.2037Z" fill="#6D6D6D"/>
<path d="M189.864 12.1256C187.653 12.1475 186.537 11.0784 186.516 8.91837C186.507 7.98873 186.806 7.24159 187.413 6.67694C187.959 6.16369 188.586 5.90356 189.293 5.89655C190.062 5.88892 190.666 6.14075 191.105 6.65205C191.512 7.1285 191.719 7.76906 191.727 8.5737L191.732 9.03071L187.736 9.07034C187.747 10.1758 188.205 10.847 189.11 11.0842C189.325 11.1406 189.655 11.1666 190.101 11.1622C190.55 11.1578 190.989 11.0929 191.417 10.9675L191.427 11.9577C190.998 12.0635 190.477 12.1195 189.864 12.1256ZM190.552 8.18105C190.548 7.80607 190.441 7.4907 190.232 7.23496C189.987 6.9405 189.651 6.79538 189.225 6.7996C188.776 6.80406 188.412 6.95025 188.134 7.23818C187.879 7.50635 187.753 7.82988 187.757 8.20877L190.552 8.18105Z" fill="#6D6D6D"/>
<path d="M202.932 7.14271C202.718 7.07622 202.461 7.04019 202.16 7.03459C201.863 7.02907 201.619 7.05578 201.426 7.11471C201.234 7.16973 201.064 7.23886 200.918 7.3221C200.65 7.47338 200.453 7.64554 200.328 7.83856L200.25 12.0683L199.078 12.0465L199.191 6.00068L200.315 6.0216L200.347 6.86022C200.646 6.49854 201.079 6.23115 201.645 6.05805C201.849 5.99153 202.082 5.9607 202.344 5.96556C202.606 5.97043 202.809 5.99373 202.952 6.03548L202.932 7.14271Z" fill="#6D6D6D"/>
<path d="M212.165 11.516C212.292 11.5687 212.486 11.6011 212.747 11.6131C213.009 11.6251 213.228 11.6039 213.407 11.5495L213.364 12.486C213.281 12.5018 213.162 12.508 213.005 12.5048L212.636 12.4996C212.554 12.4958 212.492 12.4929 212.449 12.491C211.696 12.4564 211.151 12.185 210.814 11.6769C210.544 11.2656 210.424 10.7322 210.454 10.0766L210.585 7.21441L209.719 7.17465L209.744 6.62445L210.626 6.31887L210.976 4.83334L211.866 4.87418L211.797 6.3726L213.67 6.45858L213.629 7.35412L211.756 7.26815L211.625 10.1245C211.59 10.8893 211.77 11.3532 212.165 11.516Z" fill="#6D6D6D"/>
<path d="M222.81 5.25126C222.794 5.47336 222.708 5.63957 222.552 5.74988C222.399 5.85657 222.214 5.90219 221.996 5.88675C221.777 5.8713 221.6 5.80003 221.464 5.67293C221.333 5.54221 221.275 5.3658 221.29 5.1437C221.306 4.9177 221.389 4.75122 221.537 4.64426C221.69 4.53757 221.875 4.49194 222.093 4.50739C222.311 4.52283 222.488 4.5941 222.624 4.7212C222.764 4.84858 222.826 5.02526 222.81 5.25126ZM221.318 6.90788L222.487 6.99062L222.06 13.0224L220.891 12.9397L221.318 6.90788Z" fill="#6D6D6D"/>
<path d="M233.628 6.13051C233.492 6.07062 233.3 6.02891 233.051 6.00539C232.802 5.98187 232.602 5.98646 232.45 6.01916C232.301 6.05224 232.18 6.10945 232.086 6.19081C231.923 6.33629 231.825 6.58987 231.791 6.95154L231.715 7.75071L233.22 7.89293L233.136 8.78544L231.631 8.64322L231.146 13.7708L229.98 13.6605L230.464 8.53298L229.741 8.46463L229.793 7.91629L230.548 7.64047L230.609 6.9988C230.648 6.59046 230.712 6.28654 230.801 6.08704C230.895 5.88791 230.998 5.72507 231.112 5.59851C231.226 5.47195 231.374 5.3662 231.554 5.28126C231.936 5.10154 232.454 5.04255 233.107 5.10429C233.379 5.13001 233.582 5.16486 233.715 5.20884L233.628 6.13051Z" fill="#6D6D6D"/>
<path d="M242.018 7.07933C241.992 7.30045 241.898 7.46241 241.737 7.56522C241.579 7.66462 241.392 7.70146 241.175 7.67576C240.958 7.65006 240.784 7.57053 240.654 7.43717C240.529 7.30039 240.479 7.12145 240.506 6.90033C240.532 6.67534 240.622 6.51292 240.776 6.41306C240.933 6.31367 241.12 6.27682 241.337 6.30253C241.555 6.32823 241.728 6.40776 241.858 6.54112C241.992 6.67493 242.045 6.85434 242.018 7.07933ZM240.45 8.66387L241.614 8.80156L240.904 14.8066L239.74 14.6689L240.45 8.66387Z" fill="#6D6D6D"/>
<path d="M252.938 16.3932C252.695 16.4333 252.288 16.4124 251.716 16.3302C251.143 16.2481 250.666 16.1086 250.284 15.9116C249.906 15.7153 249.595 15.4615 249.351 15.1503C248.848 14.5059 248.668 13.6868 248.81 12.693C248.949 11.7303 249.407 11.0226 250.186 10.5701C250.884 10.1651 251.689 10.0281 252.601 10.1591C253.166 10.2401 253.55 10.315 253.753 10.3836L253.605 11.416C253.295 11.265 252.931 11.1595 252.514 11.0995C252.1 11.0402 251.748 11.0488 251.456 11.1254C251.166 11.1981 250.92 11.3186 250.718 11.487C250.336 11.8071 250.103 12.2669 250.017 12.8662C249.871 13.8793 250.14 14.6064 250.822 15.0477C251.064 15.2048 251.309 15.3011 251.556 15.3366C251.804 15.3721 251.994 15.3935 252.127 15.4008C252.264 15.4086 252.394 15.4114 252.517 15.4093C252.778 15.4034 252.968 15.3853 253.087 15.355L252.938 16.3932Z" fill="#6D6D6D"/>
<path d="M259.92 16.4225C259.83 16.1811 259.773 15.9056 259.747 15.5959C259.725 15.2869 259.756 14.8937 259.838 14.4164C259.921 13.9391 260.098 13.5179 260.371 13.1529C260.649 12.7846 260.976 12.5001 261.351 12.2994C262.08 11.9139 262.922 11.8036 263.876 11.9686C264.373 12.0543 264.746 12.1307 264.996 12.1977C264.996 12.1977 265.18 12.2492 265.546 12.3522L264.517 18.3108L263.478 18.1313L263.55 17.4362C263.266 17.7042 262.874 17.8724 262.375 17.9407C262.184 17.9672 261.992 17.9638 261.8 17.9306C261.611 17.898 261.428 17.8465 261.25 17.7761C261.071 17.7057 260.898 17.6103 260.728 17.4898C260.563 17.37 260.41 17.2227 260.269 17.0478C260.13 16.8691 260.013 16.6607 259.92 16.4225ZM264.245 13.0015C264.004 12.9281 263.76 12.8702 263.514 12.8276C263.271 12.7857 263.004 12.7851 262.711 12.8257C262.42 12.8625 262.16 12.9564 261.931 13.1072C261.457 13.4216 261.151 13.9734 261.015 14.7625C260.886 15.5092 260.966 16.0919 261.254 16.5104C261.474 16.8218 261.77 17.0098 262.144 17.0743C262.625 17.1575 263.052 17.0508 263.424 16.7544C263.516 16.6792 263.586 16.6099 263.632 16.5466L264.245 13.0015Z" fill="#6D6D6D"/>
<path d="M273.549 19.1002C273.666 19.1717 273.853 19.2334 274.109 19.2853C274.366 19.3372 274.587 19.3499 274.771 19.3235L274.585 20.2424C274.501 20.2453 274.382 20.2332 274.228 20.206L273.864 20.1443C273.784 20.1281 273.722 20.1157 273.68 20.1071C272.941 19.9577 272.444 19.6061 272.19 19.0524C271.985 18.6046 271.948 18.0591 272.078 17.4158L272.646 14.6075L271.797 14.4356L271.906 13.8957L272.824 13.7288L273.397 12.3143L274.27 12.4909L273.973 13.9611L275.811 14.3329L275.633 15.2116L273.795 14.8398L273.228 17.6424C273.076 18.3929 273.183 18.8788 273.549 19.1002Z" fill="#6D6D6D"/>
<path d="M285.028 14.5393C284.978 14.7564 284.868 14.9074 284.696 14.9925C284.529 15.0746 284.339 15.0913 284.126 15.0426C283.912 14.9939 283.748 14.8964 283.633 14.75C283.523 14.6006 283.493 14.4174 283.542 14.2003C283.593 13.9795 283.7 13.8275 283.863 13.7446C284.03 13.6625 284.22 13.6458 284.433 13.6944C284.647 13.7431 284.811 13.8407 284.925 13.9871C285.044 14.1343 285.078 14.3184 285.028 14.5393ZM283.3 15.948L284.442 16.2087L283.097 22.104L281.954 21.8433L283.3 15.948Z" fill="#6D6D6D"/>
<path d="M291.053 20.8675C291.288 19.9479 291.772 19.2774 292.505 18.856C293.19 18.4628 293.937 18.3697 294.747 18.5769C295.542 18.7801 296.138 19.2168 296.535 19.8869C296.958 20.5998 297.051 21.4179 296.815 22.3413C296.579 23.2609 296.104 23.9296 295.388 24.3473C294.71 24.7462 293.977 24.8451 293.189 24.6437C292.391 24.4395 291.782 23.9975 291.363 23.3178C290.921 22.6039 290.818 21.7871 291.053 20.8675ZM292.233 21.1695C291.986 22.1384 292.128 22.8762 292.659 23.3831C292.848 23.5604 293.095 23.6882 293.402 23.7666C293.708 23.845 293.983 23.8508 294.226 23.7839C294.47 23.7132 294.685 23.595 294.873 23.4293C295.225 23.1081 295.479 22.6448 295.634 22.0393C295.88 21.078 295.743 20.3416 295.225 19.83C295.045 19.651 294.808 19.5237 294.512 19.4482C294.217 19.3727 293.944 19.3693 293.692 19.438C293.446 19.5039 293.227 19.6193 293.035 19.784C292.655 20.106 292.387 20.5678 292.233 21.1695Z" fill="#6D6D6D"/>
<path d="M306.28 22.7872C305.721 22.6255 305.169 22.6713 304.624 22.9245L303.363 27.2869L302.237 26.9614L303.916 21.1524L304.958 21.4534L304.854 22.1067C305.605 21.8031 306.306 21.7458 306.959 21.9345C307.65 22.1341 308.097 22.487 308.3 22.993C308.512 23.526 308.478 24.2765 308.198 25.2447L307.281 28.4194L306.155 28.094L307.072 24.9193C307.342 23.9886 307.251 23.3605 306.8 23.0351C306.656 22.9284 306.483 22.8457 306.28 22.7872Z" fill="#6D6D6D"/>
<path d="M325.851 25.7564L331.09 27.5857L330.754 28.5482L326.621 27.1053L325.83 29.3734L329.021 30.4879L328.697 31.4173L325.505 30.3027L324.269 33.8431L323.162 33.4567L325.851 25.7564Z" fill="#6D6D6D"/>
<path d="M336.082 34.8612C336.422 33.9751 336.981 33.3654 337.758 33.0321C338.484 32.7212 339.238 32.7157 340.018 33.0156C340.784 33.3099 341.325 33.8129 341.641 34.5246C341.978 35.2817 341.975 36.1051 341.633 36.9948C341.293 37.8808 340.743 38.4897 339.983 38.8214C339.263 39.1387 338.524 39.1517 337.765 38.8602C336.996 38.5645 336.443 38.0547 336.106 37.331C335.749 36.5705 335.741 35.7472 336.082 34.8612ZM337.22 35.2984C336.861 36.2318 336.916 36.9812 337.385 37.5465C337.552 37.7444 337.783 37.9002 338.078 38.0137C338.373 38.1272 338.645 38.1649 338.895 38.1267C339.145 38.0848 339.373 37.9925 339.578 37.8497C339.966 37.5717 340.271 37.141 340.496 36.5576C340.852 35.6314 340.802 34.8842 340.347 34.3158C340.189 34.117 339.968 33.963 339.683 33.8536C339.399 33.7443 339.128 33.7092 338.87 33.7482C338.617 33.785 338.386 33.8741 338.177 34.0155C337.762 34.291 337.442 34.7187 337.22 35.2984Z" fill="#6D6D6D"/>
<path d="M351.946 39.1115C351.772 38.9711 351.546 38.8429 351.269 38.7271C350.995 38.6127 350.757 38.5475 350.557 38.5314C350.357 38.5118 350.175 38.5137 350.008 38.5374C349.703 38.5792 349.457 38.667 349.27 38.8005L347.64 42.7045L346.559 42.2531L348.888 36.6729L349.926 37.1063L349.647 37.8976C350.058 37.6716 350.559 37.5822 351.149 37.6295C351.364 37.6428 351.592 37.6999 351.833 37.8007C352.075 37.9016 352.255 37.9978 352.373 38.0896L351.946 39.1115Z" fill="#6D6D6D"/>
<path d="M359.095 47.7721C357.08 46.8626 356.517 45.4234 357.405 43.4544C357.788 42.6071 358.373 42.055 359.162 41.7981C359.873 41.5618 360.551 41.5891 361.195 41.88C361.897 42.1966 362.339 42.679 362.522 43.3274C362.691 43.9308 362.61 44.5993 362.279 45.3327L362.091 45.7493L358.449 44.1054C357.994 45.1129 358.127 45.9145 358.848 46.51C359.02 46.6518 359.309 46.8143 359.715 46.9975C360.124 47.1823 360.55 47.3079 360.991 47.3743L360.584 48.2768C360.15 48.1926 359.654 48.0244 359.095 47.7721ZM361.377 44.4821C361.531 44.1403 361.567 43.8093 361.485 43.4892C361.386 43.119 361.143 42.8463 360.754 42.6711C360.345 42.4863 359.953 42.466 359.58 42.6102C359.236 42.7463 358.986 42.987 358.83 43.3323L361.377 44.4821Z" fill="#6D6D6D"/>
<path d="M368.707 52.2705C368.268 52.057 367.839 51.8093 367.42 51.5275L367.873 50.5948C368.277 50.9257 368.714 51.2056 369.185 51.4344C370.127 51.8921 370.694 51.9225 370.887 51.5255C370.96 51.3744 370.978 51.2441 370.94 51.1344C370.888 50.9655 370.772 50.7659 370.593 50.5356L369.995 49.8085C369.617 49.3165 369.392 48.9592 369.317 48.7364C369.177 48.3204 369.2 47.9192 369.388 47.5328C369.6 47.0971 369.974 46.8405 370.511 46.7629C371.09 46.6795 371.773 46.8291 372.56 47.2117C372.957 47.4047 373.344 47.6275 373.721 47.8801L373.283 48.7812C372.879 48.4852 372.513 48.257 372.182 48.0964C371.856 47.9376 371.591 47.8349 371.388 47.7882C371.188 47.7433 371.027 47.7302 370.905 47.7491C370.713 47.7774 370.579 47.8706 370.502 48.0287C370.427 48.1833 370.414 48.3337 370.465 48.4799C370.521 48.6242 370.628 48.8047 370.788 49.0213L371.381 49.772C371.759 50.2815 371.985 50.6414 372.061 50.852C372.205 51.2522 372.179 51.6543 371.983 52.0583C371.773 52.4904 371.386 52.7323 370.822 52.7841C370.231 52.8396 369.526 52.6684 368.707 52.2705Z" fill="#6D6D6D"/>
<path d="M379.586 56.5942C379.679 56.6953 379.841 56.8062 380.073 56.927C380.305 57.0478 380.514 57.1211 380.699 57.1468L380.266 57.9784C380.184 57.9579 380.073 57.9133 379.933 57.8446L379.6 57.6846C379.527 57.6468 379.471 57.6179 379.433 57.5981C378.765 57.2501 378.384 56.7749 378.293 56.1724C378.22 55.6855 378.335 55.151 378.638 54.5688L379.961 52.0271L379.191 51.6268L379.446 51.1382L380.375 51.2318L381.316 50.0309L382.106 50.442L381.414 51.7727L383.077 52.6381L382.664 53.4334L381 52.568L379.681 55.1045C379.327 55.7837 379.296 56.2803 379.586 56.5942Z" fill="#6D6D6D"/>
</svg>
