<svg width="23" height="24" viewBox="0 0 23 24" fill="none" xmlns="http://www.w3.org/2000/svg">
<path d="M19.6459 5.59804H11.9792V19.0147H19.6459C19.9108 19.0147 20.125 18.8005 20.125 18.5355V6.0772C20.125 5.81223 19.9108 5.59804 19.6459 5.59804Z" fill="#4CAF50"/>
<path d="M15.3334 7.99387H18.6875V9.43137H15.3334V7.99387ZM15.3334 12.7855H18.6875V14.223H15.3334V12.7855ZM15.3334 15.1814H18.6875V16.6189H15.3334V15.1814ZM15.3334 10.3897H18.6875V11.8272H15.3334V10.3897ZM11.9792 7.99387H14.375V9.43137H11.9792V7.99387ZM11.9792 12.7855H14.375V14.223H11.9792V12.7855ZM11.9792 15.1814H14.375V16.6189H11.9792V15.1814ZM11.9792 10.3897H14.375V11.8272H11.9792V10.3897Z" fill="white"/>
<path d="M12.9375 20.9314L2.875 19.0147V5.59803L12.9375 3.68137V20.9314Z" fill="#2E7D32"/>
<path d="M9.16596 15.6605L8.01069 13.475C7.9666 13.3931 7.92156 13.2436 7.8746 13.0256H7.85687C7.83483 13.1286 7.78308 13.2848 7.70162 13.4947L6.54156 15.6605H4.74133L6.87937 12.3059L4.92294 8.95219H6.7615L7.72031 10.9628C7.79506 11.1214 7.86215 11.3102 7.92156 11.5277H7.94073C7.9781 11.3979 8.04806 11.2019 8.15108 10.9431L9.21771 8.95219H10.902L8.88996 12.2771L10.958 15.6596H9.16596V15.6605Z" fill="white"/>
</svg>
