<svg width="25" height="26" viewBox="0 0 25 26" fill="none" xmlns="http://www.w3.org/2000/svg">
<path d="M16.4857 10.0388C16.4857 10.6382 15.9977 11.1274 15.3971 11.1274C14.7966 11.1274 14.3116 10.638 14.3116 10.0388C14.3116 9.43966 14.798 8.95258 15.3971 8.95258C15.9963 8.95258 16.4857 9.43989 16.4857 10.0388Z" fill="#FDC300"/>
<path d="M13.6527 7.85641H11.4682L8.84735 17.6858H16.2747L16.8573 15.5015H11.6375L13.6527 7.85641Z" fill="#FDC300"/>
<path d="M12.5551 4.58081C7.7258 4.58081 3.81067 8.49594 3.81067 13.325C3.81067 18.1542 7.7258 22.07 12.5551 22.07C17.3845 22.07 21.2996 18.1548 21.2996 13.325C21.2996 8.49525 17.3842 4.58081 12.5551 4.58081ZM12.5551 19.8742C8.93844 19.8742 6.00624 16.9424 6.00624 13.3255C6.00624 9.70858 8.93844 6.77684 12.5551 6.77684C16.1718 6.77684 19.104 9.70881 19.104 13.3255C19.104 16.9422 16.1718 19.8742 12.5551 19.8742Z" fill="#FDC300"/>
</svg>
