<svg width="18" height="22" viewBox="0 0 18 22" fill="none" xmlns="http://www.w3.org/2000/svg">
<g clip-path="url(#clip0_71_1091)">
<path d="M8.89282 0.000148855C8.15061 0.00359757 7.44181 0.0668979 6.81814 0.177256C4.98088 0.501839 4.6473 1.18122 4.6473 2.43411V4.0888H8.98897V4.64036H4.6473H3.01792C1.75611 4.64036 0.651233 5.39878 0.305642 6.84156C-0.0929921 8.49531 -0.110674 9.52728 0.305642 11.2541C0.614263 12.5394 1.35129 13.4553 2.6131 13.4553H4.10586V11.4716C4.10586 10.0386 5.34576 8.77456 6.81814 8.77456H11.1547C12.3619 8.77456 13.3256 7.78062 13.3256 6.5683V2.43411C13.3256 1.2575 12.333 0.373629 11.1547 0.177256C10.4089 0.0531029 9.63504 -0.00329991 8.89282 0.000148855ZM6.54488 1.33098C6.99335 1.33098 7.35958 1.7032 7.35958 2.16086C7.35958 2.6169 6.99335 2.98567 6.54488 2.98567C6.09481 2.98567 5.73019 2.6169 5.73019 2.16086C5.73019 1.7032 6.09481 1.33098 6.54488 1.33098Z" fill="url(#paint0_linear_71_1091)"/>
<path d="M13.867 4.64037V6.56831C13.867 8.06301 12.5998 9.32106 11.1547 9.32106H6.81811C5.63024 9.32106 4.64728 10.3377 4.64728 11.5273V15.6615C4.64728 16.8381 5.67043 17.5302 6.81811 17.8678C8.19243 18.2719 9.51034 18.3449 11.1547 17.8678C12.2477 17.5513 13.3255 16.9144 13.3255 15.6615V14.0068H8.98894V13.4553H13.3255H15.4964C16.7582 13.4553 17.2284 12.5751 17.6672 11.2541C18.1205 9.89406 18.1012 8.58619 17.6672 6.84156C17.3554 5.58542 16.7598 4.64037 15.4964 4.64037H13.867ZM11.428 15.1099C11.878 15.1099 12.2427 15.4787 12.2427 15.9348C12.2427 16.3924 11.878 16.7646 11.428 16.7646C10.9795 16.7646 10.6133 16.3924 10.6133 15.9348C10.6133 15.4787 10.9795 15.1099 11.428 15.1099Z" fill="url(#paint1_linear_71_1091)"/>
<path opacity="0.44382" d="M9.03822 21.8064C12.2515 21.8064 14.8564 21.3013 14.8564 20.6782C14.8564 20.0551 12.2515 19.55 9.03822 19.55C5.82492 19.55 3.22003 20.0551 3.22003 20.6782C3.22003 21.3013 5.82492 21.8064 9.03822 21.8064Z" fill="url(#paint2_radial_71_1091)"/>
</g>
<defs>
<linearGradient id="paint0_linear_71_1091" x1="-5.40881e-08" y1="-4.69848e-08" x2="10.0114" y2="8.5311" gradientUnits="userSpaceOnUse">
<stop stop-color="#5A9FD4"/>
<stop offset="1" stop-color="#306998"/>
</linearGradient>
<linearGradient id="paint1_linear_71_1091" x1="11.3236" y1="15.7956" x2="7.73192" y2="10.7626" gradientUnits="userSpaceOnUse">
<stop stop-color="#FFD43B"/>
<stop offset="1" stop-color="#FFE873"/>
</linearGradient>
<radialGradient id="paint2_radial_71_1091" cx="0" cy="0" r="1" gradientUnits="userSpaceOnUse" gradientTransform="translate(9.03822 20.6782) rotate(-90) scale(1.1282 4.95889)">
<stop stop-color="#B8B8B8" stop-opacity="0.498039"/>
<stop offset="1" stop-color="#7F7F7F" stop-opacity="0"/>
</radialGradient>
<clipPath id="clip0_71_1091">
<rect width="18" height="21.8064" fill="white"/>
</clipPath>
</defs>
</svg>
